<svg width="160" height="86" viewBox="0 0 160 86" fill="none" xmlns="http://www.w3.org/2000/svg">
<g clip-path="url(#clip0_239_2046)">
<path d="M43.144 51H38.384L27.606 34.714V51H22.846V27.234H27.606L38.384 43.554V27.234H43.144V51ZM48.698 31.11V37.06H56.688V40.834H48.698V47.124H57.708V51H43.938V27.234H57.708V31.11H48.698ZM72.3357 51L67.2017 43.01L62.5437 51H57.1717L64.6517 39.032L57.0697 27.268H62.5437L67.6777 35.224L72.3017 27.268H77.6737L70.2277 39.202L77.8097 51H72.3357ZM93.6723 27.268V31.11H87.3483V51H82.5883V31.11H76.2643V27.268H93.6723ZM104.251 51.238C102.03 51.238 99.99 50.7167 98.1313 49.674C96.2726 48.6313 94.7993 47.192 93.7113 45.356C92.6233 43.4973 92.0793 41.4007 92.0793 39.066C92.0793 36.754 92.6233 34.68 93.7113 32.844C94.7993 30.9853 96.2726 29.5347 98.1313 28.492C99.99 27.4493 102.03 26.928 104.251 26.928C106.495 26.928 108.535 27.4493 110.371 28.492C112.23 29.5347 113.692 30.9853 114.757 32.844C115.845 34.68 116.389 36.754 116.389 39.066C116.389 41.4007 115.845 43.4973 114.757 45.356C113.692 47.192 112.23 48.6313 110.371 49.674C108.513 50.7167 106.473 51.238 104.251 51.238ZM104.251 46.988C105.679 46.988 106.937 46.6707 108.025 46.036C109.113 45.3787 109.963 44.4493 110.575 43.248C111.187 42.0467 111.493 40.6527 111.493 39.066C111.493 37.4793 111.187 36.0967 110.575 34.918C109.963 33.7167 109.113 32.7987 108.025 32.164C106.937 31.5293 105.679 31.212 104.251 31.212C102.823 31.212 101.554 31.5293 100.443 32.164C99.3553 32.7987 98.5053 33.7167 97.8933 34.918C97.2813 36.0967 96.9753 37.4793 96.9753 39.066C96.9753 40.6527 97.2813 42.0467 97.8933 43.248C98.5053 44.4493 99.3553 45.3787 100.443 46.036C101.554 46.6707 102.823 46.988 104.251 46.988ZM136.319 51H131.559L120.781 34.714V51H116.021V27.234H120.781L131.559 43.554V27.234H136.319V51Z" fill="#111827"/>
<path d="M69.578 61.87C69.578 62.1127 69.564 62.3693 69.536 62.64H63.404C63.4507 63.396 63.7073 63.9887 64.174 64.418C64.65 64.838 65.224 65.048 65.896 65.048C66.4467 65.048 66.904 64.922 67.268 64.67C67.6413 64.4087 67.9027 64.0633 68.052 63.634H69.424C69.2187 64.3713 68.808 64.9733 68.192 65.44C67.576 65.8973 66.8107 66.126 65.896 66.126C65.168 66.126 64.5147 65.9627 63.936 65.636C63.3667 65.3093 62.9187 64.8473 62.592 64.25C62.2653 63.6433 62.102 62.9433 62.102 62.15C62.102 61.3567 62.2607 60.6613 62.578 60.064C62.8953 59.4667 63.3387 59.0093 63.908 58.692C64.4867 58.3653 65.1493 58.202 65.896 58.202C66.624 58.202 67.268 58.3607 67.828 58.678C68.388 58.9953 68.8173 59.434 69.116 59.994C69.424 60.5447 69.578 61.17 69.578 61.87ZM68.262 61.604C68.262 61.1187 68.1547 60.7033 67.94 60.358C67.7253 60.0033 67.4313 59.7373 67.058 59.56C66.694 59.3733 66.288 59.28 65.84 59.28C65.196 59.28 64.6453 59.4853 64.188 59.896C63.74 60.3067 63.4833 60.876 63.418 61.604H68.262ZM69.3836 61.114C69.3836 60.162 69.5983 59.308 70.0276 58.552C70.457 57.7867 71.0403 57.1893 71.7776 56.76C72.5243 56.3307 73.3503 56.116 74.2556 56.116C75.3196 56.116 76.2483 56.3727 77.0416 56.886C77.835 57.3993 78.4136 58.1273 78.7776 59.07H77.2516C76.981 58.482 76.589 58.0293 76.0756 57.712C75.5716 57.3947 74.965 57.236 74.2556 57.236C73.5743 57.236 72.963 57.3947 72.4216 57.712C71.8803 58.0293 71.4556 58.482 71.1476 59.07C70.8396 59.6487 70.6856 60.33 70.6856 61.114C70.6856 61.8887 70.8396 62.57 71.1476 63.158C71.4556 63.7367 71.8803 64.1847 72.4216 64.502C72.963 64.8193 73.5743 64.978 74.2556 64.978C74.965 64.978 75.5716 64.824 76.0756 64.516C76.589 64.1987 76.981 63.746 77.2516 63.158H78.7776C78.4136 64.0913 77.835 64.8147 77.0416 65.328C76.2483 65.832 75.3196 66.084 74.2556 66.084C73.3503 66.084 72.5243 65.874 71.7776 65.454C71.0403 65.0247 70.457 64.432 70.0276 63.676C69.5983 62.92 69.3836 62.066 69.3836 61.114ZM82.6201 66.126C81.9014 66.126 81.2481 65.9627 80.6601 65.636C80.0814 65.3093 79.6241 64.8473 79.2881 64.25C78.9614 63.6433 78.7981 62.9433 78.7981 62.15C78.7981 61.366 78.9661 60.6753 79.3021 60.078C79.6474 59.4713 80.1141 59.0093 80.7021 58.692C81.2901 58.3653 81.9481 58.202 82.6761 58.202C83.4041 58.202 84.0621 58.3653 84.6501 58.692C85.2381 59.0093 85.7001 59.4667 86.0361 60.064C86.3814 60.6613 86.5541 61.3567 86.5541 62.15C86.5541 62.9433 86.3768 63.6433 86.0221 64.25C85.6768 64.8473 85.2054 65.3093 84.6081 65.636C84.0108 65.9627 83.3481 66.126 82.6201 66.126ZM82.6201 65.006C83.0774 65.006 83.5068 64.8987 83.9081 64.684C84.3094 64.4693 84.6314 64.1473 84.8741 63.718C85.1261 63.2887 85.2521 62.766 85.2521 62.15C85.2521 61.534 85.1308 61.0113 84.8881 60.582C84.6454 60.1527 84.3281 59.8353 83.9361 59.63C83.5441 59.4153 83.1194 59.308 82.6621 59.308C82.1954 59.308 81.7661 59.4153 81.3741 59.63C80.9914 59.8353 80.6834 60.1527 80.4501 60.582C80.2168 61.0113 80.1001 61.534 80.1001 62.15C80.1001 62.7753 80.2121 63.3027 80.4361 63.732C80.6694 64.1613 80.9774 64.4833 81.3601 64.698C81.7428 64.9033 82.1628 65.006 82.6201 65.006ZM96.0552 58.188C96.6525 58.188 97.1845 58.314 97.6512 58.566C98.1178 58.8087 98.4865 59.1773 98.7572 59.672C99.0278 60.1667 99.1632 60.7687 99.1632 61.478V66H97.9032V61.66C97.9032 60.8947 97.7118 60.3113 97.3292 59.91C96.9558 59.4993 96.4472 59.294 95.8032 59.294C95.1405 59.294 94.6132 59.5087 94.2212 59.938C93.8292 60.358 93.6332 60.9693 93.6332 61.772V66H92.3732V61.66C92.3732 60.8947 92.1818 60.3113 91.7992 59.91C91.4258 59.4993 90.9172 59.294 90.2732 59.294C89.6105 59.294 89.0832 59.5087 88.6912 59.938C88.2992 60.358 88.1032 60.9693 88.1032 61.772V66H86.8292V58.328H88.1032V59.434C88.3552 59.0327 88.6912 58.7247 89.1112 58.51C89.5405 58.2953 90.0118 58.188 90.5252 58.188C91.1692 58.188 91.7385 58.3327 92.2332 58.622C92.7278 58.9113 93.0965 59.336 93.3392 59.896C93.5538 59.3547 93.9085 58.9347 94.4032 58.636C94.8978 58.3373 95.4485 58.188 96.0552 58.188ZM109.079 58.188C109.676 58.188 110.208 58.314 110.675 58.566C111.142 58.8087 111.51 59.1773 111.781 59.672C112.052 60.1667 112.187 60.7687 112.187 61.478V66H110.927V61.66C110.927 60.8947 110.736 60.3113 110.353 59.91C109.98 59.4993 109.471 59.294 108.827 59.294C108.164 59.294 107.637 59.5087 107.245 59.938C106.853 60.358 106.657 60.9693 106.657 61.772V66H105.397V61.66C105.397 60.8947 105.206 60.3113 104.823 59.91C104.45 59.4993 103.941 59.294 103.297 59.294C102.634 59.294 102.107 59.5087 101.715 59.938C101.323 60.358 101.127 60.9693 101.127 61.772V66H99.853V58.328H101.127V59.434C101.379 59.0327 101.715 58.7247 102.135 58.51C102.564 58.2953 103.036 58.188 103.549 58.188C104.193 58.188 104.762 58.3327 105.257 58.622C105.752 58.9113 106.12 59.336 106.363 59.896C106.578 59.3547 106.932 58.9347 107.427 58.636C107.922 58.3373 108.472 58.188 109.079 58.188ZM119.877 61.87C119.877 62.1127 119.863 62.3693 119.835 62.64H113.703C113.749 63.396 114.006 63.9887 114.473 64.418C114.949 64.838 115.523 65.048 116.195 65.048C116.745 65.048 117.203 64.922 117.567 64.67C117.94 64.4087 118.201 64.0633 118.351 63.634H119.723C119.517 64.3713 119.107 64.9733 118.491 65.44C117.875 65.8973 117.109 66.126 116.195 66.126C115.467 66.126 114.813 65.9627 114.235 65.636C113.665 65.3093 113.217 64.8473 112.891 64.25C112.564 63.6433 112.401 62.9433 112.401 62.15C112.401 61.3567 112.559 60.6613 112.877 60.064C113.194 59.4667 113.637 59.0093 114.207 58.692C114.785 58.3653 115.448 58.202 116.195 58.202C116.923 58.202 117.567 58.3607 118.127 58.678C118.687 58.9953 119.116 59.434 119.415 59.994C119.723 60.5447 119.877 61.17 119.877 61.87ZM118.561 61.604C118.561 61.1187 118.453 60.7033 118.239 60.358C118.024 60.0033 117.73 59.7373 117.357 59.56C116.993 59.3733 116.587 59.28 116.139 59.28C115.495 59.28 114.944 59.4853 114.487 59.896C114.039 60.3067 113.782 60.876 113.717 61.604H118.561ZM121.432 59.574C121.656 59.1353 121.974 58.7947 122.384 58.552C122.804 58.3093 123.313 58.188 123.91 58.188V59.504H123.574C122.146 59.504 121.432 60.2787 121.432 61.828V66H120.158V58.328H121.432V59.574ZM123.505 62.15C123.505 61.3567 123.664 60.666 123.981 60.078C124.298 59.4807 124.737 59.0187 125.297 58.692C125.866 58.3653 126.515 58.202 127.243 58.202C128.186 58.202 128.96 58.4307 129.567 58.888C130.183 59.3453 130.589 59.98 130.785 60.792H129.413C129.282 60.3253 129.026 59.9567 128.643 59.686C128.27 59.4153 127.803 59.28 127.243 59.28C126.515 59.28 125.927 59.532 125.479 60.036C125.031 60.5307 124.807 61.2353 124.807 62.15C124.807 63.074 125.031 63.788 125.479 64.292C125.927 64.796 126.515 65.048 127.243 65.048C127.803 65.048 128.27 64.9173 128.643 64.656C129.016 64.3947 129.273 64.0213 129.413 63.536H130.785C130.58 64.32 130.169 64.95 129.553 65.426C128.937 65.8927 128.167 66.126 127.243 66.126C126.515 66.126 125.866 65.9627 125.297 65.636C124.737 65.3093 124.298 64.8473 123.981 64.25C123.664 63.6527 123.505 62.9527 123.505 62.15ZM138.085 61.87C138.085 62.1127 138.071 62.3693 138.043 62.64H131.911C131.958 63.396 132.214 63.9887 132.681 64.418C133.157 64.838 133.731 65.048 134.403 65.048C134.954 65.048 135.411 64.922 135.775 64.67C136.148 64.4087 136.41 64.0633 136.559 63.634H137.931C137.726 64.3713 137.315 64.9733 136.699 65.44C136.083 65.8973 135.318 66.126 134.403 66.126C133.675 66.126 133.022 65.9627 132.443 65.636C131.874 65.3093 131.426 64.8473 131.099 64.25C130.772 63.6433 130.609 62.9433 130.609 62.15C130.609 61.3567 130.768 60.6613 131.085 60.064C131.402 59.4667 131.846 59.0093 132.415 58.692C132.994 58.3653 133.656 58.202 134.403 58.202C135.131 58.202 135.775 58.3607 136.335 58.678C136.895 58.9953 137.324 59.434 137.623 59.994C137.931 60.5447 138.085 61.17 138.085 61.87ZM136.769 61.604C136.769 61.1187 136.662 60.7033 136.447 60.358C136.232 60.0033 135.938 59.7373 135.565 59.56C135.201 59.3733 134.795 59.28 134.347 59.28C133.703 59.28 133.152 59.4853 132.695 59.896C132.247 60.3067 131.99 60.876 131.925 61.604H136.769Z" fill="#111827"/>
</g>
<defs>
<clipPath id="clip0_239_2046">
<rect width="119" height="46" fill="white" transform="translate(20.5 20)"/>
</clipPath>
</defs>
</svg>
