<svg width="119" height="47" viewBox="0 0 119 47" fill="none" xmlns="http://www.w3.org/2000/svg">
<g clip-path="url(#clip0_22_1396)">
<path d="M22.644 31.4441H17.884L7.106 15.1581V31.4441H2.346V7.67809H7.106L17.884 23.9981V7.67809H22.644V31.4441ZM28.198 11.5541V17.5041H36.188V21.2781H28.198V27.5681H37.208V31.4441H23.438V7.67809H37.208V11.5541H28.198ZM51.8357 31.4441L46.7017 23.4541L42.0437 31.4441H36.6717L44.1517 19.4761L36.5697 7.71209H42.0437L47.1777 15.6681L51.8017 7.71209H57.1737L49.7277 19.6461L57.3097 31.4441H51.8357ZM73.1723 7.71209V11.5541H66.8483V31.4441H62.0883V11.5541H55.7643V7.71209H73.1723ZM83.7513 31.6821C81.53 31.6821 79.49 31.1608 77.6313 30.1181C75.7726 29.0754 74.2993 27.6361 73.2113 25.8001C72.1233 23.9414 71.5793 21.8448 71.5793 19.5101C71.5793 17.1981 72.1233 15.1241 73.2113 13.2881C74.2993 11.4294 75.7726 9.97876 77.6313 8.93609C79.49 7.89342 81.53 7.37209 83.7513 7.37209C85.9953 7.37209 88.0353 7.89342 89.8713 8.93609C91.73 9.97876 93.192 11.4294 94.2573 13.2881C95.3453 15.1241 95.8893 17.1981 95.8893 19.5101C95.8893 21.8448 95.3453 23.9414 94.2573 25.8001C93.192 27.6361 91.73 29.0754 89.8713 30.1181C88.0126 31.1608 85.9726 31.6821 83.7513 31.6821ZM83.7513 27.4321C85.1793 27.4321 86.4373 27.1148 87.5253 26.4801C88.6133 25.8228 89.4633 24.8934 90.0753 23.6921C90.6873 22.4908 90.9933 21.0968 90.9933 19.5101C90.9933 17.9234 90.6873 16.5408 90.0753 15.3621C89.4633 14.1608 88.6133 13.2428 87.5253 12.6081C86.4373 11.9734 85.1793 11.6561 83.7513 11.6561C82.3233 11.6561 81.054 11.9734 79.9433 12.6081C78.8553 13.2428 78.0053 14.1608 77.3933 15.3621C76.7813 16.5408 76.4753 17.9234 76.4753 19.5101C76.4753 21.0968 76.7813 22.4908 77.3933 23.6921C78.0053 24.8934 78.8553 25.8228 79.9433 26.4801C81.054 27.1148 82.3233 27.4321 83.7513 27.4321ZM115.819 31.4441H111.059L100.281 15.1581V31.4441H95.5206V7.67809H100.281L111.059 23.9981V7.67809H115.819V31.4441Z" fill="#111827"/>
<path d="M49.078 42.3141C49.078 42.5568 49.064 42.8134 49.036 43.0841H42.904C42.9507 43.8401 43.2073 44.4328 43.674 44.8621C44.15 45.2821 44.724 45.4921 45.396 45.4921C45.9467 45.4921 46.404 45.3661 46.768 45.1141C47.1413 44.8528 47.4027 44.5074 47.552 44.0781H48.924C48.7187 44.8154 48.308 45.4174 47.692 45.8841C47.076 46.3414 46.3107 46.5701 45.396 46.5701C44.668 46.5701 44.0147 46.4068 43.436 46.0801C42.8667 45.7534 42.4187 45.2914 42.092 44.6941C41.7653 44.0874 41.602 43.3874 41.602 42.5941C41.602 41.8008 41.7607 41.1054 42.078 40.5081C42.3953 39.9108 42.8387 39.4534 43.408 39.1361C43.9867 38.8094 44.6493 38.6461 45.396 38.6461C46.124 38.6461 46.768 38.8048 47.328 39.1221C47.888 39.4394 48.3173 39.8781 48.616 40.4381C48.924 40.9888 49.078 41.6141 49.078 42.3141ZM47.762 42.0481C47.762 41.5628 47.6547 41.1474 47.44 40.8021C47.2253 40.4474 46.9313 40.1814 46.558 40.0041C46.194 39.8174 45.788 39.7241 45.34 39.7241C44.696 39.7241 44.1453 39.9294 43.688 40.3401C43.24 40.7508 42.9833 41.3201 42.918 42.0481H47.762ZM48.8836 41.5581C48.8836 40.6061 49.0983 39.7521 49.5276 38.9961C49.957 38.2308 50.5403 37.6334 51.2776 37.2041C52.0243 36.7748 52.8503 36.5601 53.7556 36.5601C54.8196 36.5601 55.7483 36.8168 56.5416 37.3301C57.335 37.8434 57.9136 38.5714 58.2776 39.5141H56.7516C56.481 38.9261 56.089 38.4734 55.5756 38.1561C55.0716 37.8388 54.465 37.6801 53.7556 37.6801C53.0743 37.6801 52.463 37.8388 51.9216 38.1561C51.3803 38.4734 50.9556 38.9261 50.6476 39.5141C50.3396 40.0928 50.1856 40.7741 50.1856 41.5581C50.1856 42.3328 50.3396 43.0141 50.6476 43.6021C50.9556 44.1808 51.3803 44.6288 51.9216 44.9461C52.463 45.2634 53.0743 45.4221 53.7556 45.4221C54.465 45.4221 55.0716 45.2681 55.5756 44.9601C56.089 44.6428 56.481 44.1901 56.7516 43.6021H58.2776C57.9136 44.5354 57.335 45.2588 56.5416 45.7721C55.7483 46.2761 54.8196 46.5281 53.7556 46.5281C52.8503 46.5281 52.0243 46.3181 51.2776 45.8981C50.5403 45.4688 49.957 44.8761 49.5276 44.1201C49.0983 43.3641 48.8836 42.5101 48.8836 41.5581ZM62.1201 46.5701C61.4014 46.5701 60.7481 46.4068 60.1601 46.0801C59.5814 45.7534 59.1241 45.2914 58.7881 44.6941C58.4614 44.0874 58.2981 43.3874 58.2981 42.5941C58.2981 41.8101 58.4661 41.1194 58.8021 40.5221C59.1474 39.9154 59.6141 39.4534 60.2021 39.1361C60.7901 38.8094 61.4481 38.6461 62.1761 38.6461C62.9041 38.6461 63.5621 38.8094 64.1501 39.1361C64.7381 39.4534 65.2001 39.9108 65.5361 40.5081C65.8814 41.1054 66.0541 41.8008 66.0541 42.5941C66.0541 43.3874 65.8768 44.0874 65.5221 44.6941C65.1768 45.2914 64.7054 45.7534 64.1081 46.0801C63.5108 46.4068 62.8481 46.5701 62.1201 46.5701ZM62.1201 45.4501C62.5774 45.4501 63.0068 45.3428 63.4081 45.1281C63.8094 44.9134 64.1314 44.5914 64.3741 44.1621C64.6261 43.7328 64.7521 43.2101 64.7521 42.5941C64.7521 41.9781 64.6308 41.4554 64.3881 41.0261C64.1454 40.5968 63.8281 40.2794 63.4361 40.0741C63.0441 39.8594 62.6194 39.7521 62.1621 39.7521C61.6954 39.7521 61.2661 39.8594 60.8741 40.0741C60.4914 40.2794 60.1834 40.5968 59.9501 41.0261C59.7168 41.4554 59.6001 41.9781 59.6001 42.5941C59.6001 43.2194 59.7121 43.7468 59.9361 44.1761C60.1694 44.6054 60.4774 44.9274 60.8601 45.1421C61.2428 45.3474 61.6628 45.4501 62.1201 45.4501ZM75.5552 38.6321C76.1525 38.6321 76.6845 38.7581 77.1512 39.0101C77.6178 39.2528 77.9865 39.6214 78.2572 40.1161C78.5278 40.6108 78.6632 41.2128 78.6632 41.9221V46.4441H77.4032V42.1041C77.4032 41.3388 77.2118 40.7554 76.8292 40.3541C76.4558 39.9434 75.9472 39.7381 75.3032 39.7381C74.6405 39.7381 74.1132 39.9528 73.7212 40.3821C73.3292 40.8021 73.1332 41.4134 73.1332 42.2161V46.4441H71.8732V42.1041C71.8732 41.3388 71.6818 40.7554 71.2992 40.3541C70.9258 39.9434 70.4172 39.7381 69.7732 39.7381C69.1105 39.7381 68.5832 39.9528 68.1912 40.3821C67.7992 40.8021 67.6032 41.4134 67.6032 42.2161V46.4441H66.3292V38.7721H67.6032V39.8781C67.8552 39.4768 68.1912 39.1688 68.6112 38.9541C69.0405 38.7394 69.5118 38.6321 70.0252 38.6321C70.6692 38.6321 71.2385 38.7768 71.7332 39.0661C72.2278 39.3554 72.5965 39.7801 72.8392 40.3401C73.0538 39.7988 73.4085 39.3788 73.9032 39.0801C74.3978 38.7814 74.9485 38.6321 75.5552 38.6321ZM88.579 38.6321C89.1763 38.6321 89.7083 38.7581 90.175 39.0101C90.6417 39.2528 91.0103 39.6214 91.281 40.1161C91.5517 40.6108 91.687 41.2128 91.687 41.9221V46.4441H90.427V42.1041C90.427 41.3388 90.2357 40.7554 89.853 40.3541C89.4797 39.9434 88.971 39.7381 88.327 39.7381C87.6643 39.7381 87.137 39.9528 86.745 40.3821C86.353 40.8021 86.157 41.4134 86.157 42.2161V46.4441H84.897V42.1041C84.897 41.3388 84.7057 40.7554 84.323 40.3541C83.9497 39.9434 83.441 39.7381 82.797 39.7381C82.1343 39.7381 81.607 39.9528 81.215 40.3821C80.823 40.8021 80.627 41.4134 80.627 42.2161V46.4441H79.353V38.7721H80.627V39.8781C80.879 39.4768 81.215 39.1688 81.635 38.9541C82.0643 38.7394 82.5357 38.6321 83.049 38.6321C83.693 38.6321 84.2623 38.7768 84.757 39.0661C85.2517 39.3554 85.6203 39.7801 85.863 40.3401C86.0777 39.7988 86.4323 39.3788 86.927 39.0801C87.4217 38.7814 87.9723 38.6321 88.579 38.6321ZM99.3768 42.3141C99.3768 42.5568 99.3628 42.8134 99.3348 43.0841H93.2028C93.2495 43.8401 93.5062 44.4328 93.9728 44.8621C94.4488 45.2821 95.0228 45.4921 95.6948 45.4921C96.2455 45.4921 96.7028 45.3661 97.0668 45.1141C97.4402 44.8528 97.7015 44.5074 97.8508 44.0781H99.2228C99.0175 44.8154 98.6068 45.4174 97.9908 45.8841C97.3748 46.3414 96.6095 46.5701 95.6948 46.5701C94.9668 46.5701 94.3135 46.4068 93.7348 46.0801C93.1655 45.7534 92.7175 45.2914 92.3908 44.6941C92.0642 44.0874 91.9008 43.3874 91.9008 42.5941C91.9008 41.8008 92.0595 41.1054 92.3768 40.5081C92.6942 39.9108 93.1375 39.4534 93.7068 39.1361C94.2855 38.8094 94.9482 38.6461 95.6948 38.6461C96.4228 38.6461 97.0668 38.8048 97.6268 39.1221C98.1868 39.4394 98.6162 39.8781 98.9148 40.4381C99.2228 40.9888 99.3768 41.6141 99.3768 42.3141ZM98.0608 42.0481C98.0608 41.5628 97.9535 41.1474 97.7388 40.8021C97.5242 40.4474 97.2302 40.1814 96.8568 40.0041C96.4928 39.8174 96.0868 39.7241 95.6388 39.7241C94.9948 39.7241 94.4442 39.9294 93.9868 40.3401C93.5388 40.7508 93.2822 41.3201 93.2168 42.0481H98.0608ZM100.932 40.0181C101.156 39.5794 101.474 39.2388 101.884 38.9961C102.304 38.7534 102.813 38.6321 103.41 38.6321V39.9481H103.074C101.646 39.9481 100.932 40.7228 100.932 42.2721V46.4441H99.6585V38.7721H100.932V40.0181ZM103.005 42.5941C103.005 41.8008 103.164 41.1101 103.481 40.5221C103.798 39.9248 104.237 39.4628 104.797 39.1361C105.366 38.8094 106.015 38.6461 106.743 38.6461C107.686 38.6461 108.46 38.8748 109.067 39.3321C109.683 39.7894 110.089 40.4241 110.285 41.2361H108.913C108.782 40.7694 108.526 40.4008 108.143 40.1301C107.77 39.8594 107.303 39.7241 106.743 39.7241C106.015 39.7241 105.427 39.9761 104.979 40.4801C104.531 40.9748 104.307 41.6794 104.307 42.5941C104.307 43.5181 104.531 44.2321 104.979 44.7361C105.427 45.2401 106.015 45.4921 106.743 45.4921C107.303 45.4921 107.77 45.3614 108.143 45.1001C108.516 44.8388 108.773 44.4654 108.913 43.9801H110.285C110.08 44.7641 109.669 45.3941 109.053 45.8701C108.437 46.3368 107.667 46.5701 106.743 46.5701C106.015 46.5701 105.366 46.4068 104.797 46.0801C104.237 45.7534 103.798 45.2914 103.481 44.6941C103.164 44.0968 103.005 43.3968 103.005 42.5941ZM117.585 42.3141C117.585 42.5568 117.571 42.8134 117.543 43.0841H111.411C111.458 43.8401 111.714 44.4328 112.181 44.8621C112.657 45.2821 113.231 45.4921 113.903 45.4921C114.454 45.4921 114.911 45.3661 115.275 45.1141C115.648 44.8528 115.91 44.5074 116.059 44.0781H117.431C117.226 44.8154 116.815 45.4174 116.199 45.8841C115.583 46.3414 114.818 46.5701 113.903 46.5701C113.175 46.5701 112.522 46.4068 111.943 46.0801C111.374 45.7534 110.926 45.2914 110.599 44.6941C110.272 44.0874 110.109 43.3874 110.109 42.5941C110.109 41.8008 110.268 41.1054 110.585 40.5081C110.902 39.9108 111.346 39.4534 111.915 39.1361C112.494 38.8094 113.156 38.6461 113.903 38.6461C114.631 38.6461 115.275 38.8048 115.835 39.1221C116.395 39.4394 116.824 39.8781 117.123 40.4381C117.431 40.9888 117.585 41.6141 117.585 42.3141ZM116.269 42.0481C116.269 41.5628 116.162 41.1474 115.947 40.8021C115.732 40.4474 115.438 40.1814 115.065 40.0041C114.701 39.8174 114.295 39.7241 113.847 39.7241C113.203 39.7241 112.652 39.9294 112.195 40.3401C111.747 40.7508 111.49 41.3201 111.425 42.0481H116.269Z" fill="#111827"/>
</g>
<defs>
<clipPath id="clip0_22_1396">
<rect width="119" height="46" fill="white" transform="translate(0 0.444092)"/>
</clipPath>
</defs>
</svg>
